<?xml version="1.0" standalone="no"?>
<!DOCTYPE svg PUBLIC "-//W3C//DTD SVG 20010904//EN"
 "http://www.w3.org/TR/2001/REC-SVG-20010904/DTD/svg10.dtd">
<svg version="1.0" xmlns="http://www.w3.org/2000/svg"
 width="1280.000000pt" height="1280.000000pt" viewBox="0 0 1280.000000 1280.000000"
 preserveAspectRatio="xMidYMid meet">
<metadata>
Created by potrace 1.14, written by Peter Selinger 2001-2017
</metadata>
<g transform="translate(0.000000,1280.000000) scale(0.100000,-0.100000)"
fill="#000000" stroke="none">
<path d="M3826 9893 c-1 -1 -15 -4 -31 -7 -51 -9 -158 -51 -210 -82 -58 -34
-180 -152 -216 -209 -35 -53 -119 -203 -119 -210 0 -15 -73 -116 -122 -170
-31 -33 -77 -87 -104 -120 -27 -33 -56 -68 -64 -79 -8 -10 -21 -24 -28 -32 -7
-8 -10 -14 -6 -14 4 0 -5 -11 -20 -25 -14 -13 -26 -27 -26 -30 0 -4 -6 -12
-12 -19 -7 -8 -20 -24 -28 -36 -8 -12 -25 -36 -38 -53 -13 -18 -44 -63 -70
-102 -25 -38 -52 -76 -59 -83 -7 -7 -13 -18 -13 -23 0 -5 -7 -9 -16 -9 -8 0
-13 4 -10 8 7 12 30 203 54 462 15 152 5 447 -18 525 -5 17 -12 49 -15 73 -11
68 -60 80 -102 24 -31 -42 -73 -121 -73 -137 0 -8 -4 -15 -8 -15 -15 0 -89
-206 -98 -272 -2 -18 -7 -51 -10 -73 -21 -131 -5 -334 36 -463 20 -61 87 -210
101 -222 3 -3 15 -21 27 -41 l21 -36 -31 -59 c-86 -164 -189 -374 -183 -374 2
0 -10 -27 -26 -60 -16 -33 -60 -153 -99 -267 -38 -115 -70 -203 -71 -198 0 6
-2 33 -4 60 -3 28 -7 77 -10 110 -7 59 -8 76 -19 245 -15 213 -18 237 -38 280
-12 25 -30 52 -42 62 -18 14 -23 15 -48 2 -127 -66 -197 -291 -166 -533 11
-84 48 -221 59 -221 5 0 6 -6 3 -14 -3 -8 -1 -17 5 -21 6 -3 11 -12 11 -20 0
-29 75 -142 131 -197 44 -44 57 -63 53 -80 -23 -122 -38 -322 -38 -518 0 -220
13 -363 53 -570 27 -138 27 -144 -11 -85 -18 28 -35 52 -38 55 -3 3 -28 37
-55 75 -27 39 -51 72 -54 75 -4 3 -19 23 -35 45 -28 38 -149 162 -192 196 -11
9 -35 22 -52 30 -18 8 -32 17 -32 20 0 6 -104 43 -125 44 -5 0 -16 -5 -24 -13
-16 -15 -9 -91 14 -145 8 -19 11 -37 8 -41 -4 -3 -1 -6 5 -6 7 0 12 -7 12 -15
0 -24 77 -162 130 -235 60 -81 189 -202 252 -238 26 -15 48 -30 48 -34 0 -5 5
-8 10 -8 6 0 30 -9 53 -21 58 -29 148 -60 157 -54 13 8 25 -16 64 -130 21 -60
44 -123 51 -140 7 -16 18 -46 26 -65 7 -19 27 -68 46 -108 18 -41 33 -76 33
-78 0 -9 152 -319 159 -324 3 -3 15 -23 27 -45 11 -22 31 -57 43 -79 27 -47
24 -64 -7 -35 -13 11 -25 19 -28 16 -3 -2 -17 7 -33 22 -41 39 -73 61 -88 61
-7 0 -13 5 -13 10 0 6 -4 10 -9 10 -5 0 -41 19 -81 41 -39 23 -103 55 -142 71
-121 51 -268 46 -268 -9 0 -20 70 -167 81 -171 5 -2 9 -8 9 -13 0 -26 92 -131
171 -194 58 -46 150 -92 246 -122 76 -23 94 -25 201 -20 64 3 126 7 136 9 13
2 30 -11 54 -42 18 -25 41 -54 50 -65 10 -11 23 -33 31 -47 8 -15 21 -36 30
-45 9 -10 28 -34 41 -53 31 -44 58 -77 92 -112 14 -15 24 -28 22 -28 -5 0 113
-142 186 -224 19 -22 77 -82 128 -133 52 -52 92 -97 90 -99 -3 -2 -32 7 -65
20 -33 14 -118 37 -189 51 -108 22 -155 26 -287 26 -164 0 -187 -5 -187 -41 0
-23 74 -97 142 -143 217 -144 498 -198 713 -136 93 26 136 28 159 8 30 -28 79
-61 166 -114 25 -16 47 -31 50 -34 13 -17 325 -163 405 -189 101 -34 218 -70
255 -78 50 -10 136 -24 153 -24 21 0 23 29 2 31 -23 2 -29 4 -40 10 -10 6 -59
21 -85 25 -29 5 -165 55 -262 95 -103 43 -102 43 -113 124 -7 51 -35 147 -60
200 -7 17 -14 34 -13 39 0 5 -4 12 -9 15 -4 3 -19 26 -32 51 -44 83 -135 203
-223 292 -47 48 -91 88 -97 88 -5 0 -17 -7 -26 -17 -14 -13 -16 -27 -10 -70 8
-63 52 -224 66 -238 5 -5 9 -17 9 -27 0 -10 5 -18 10 -18 6 0 10 -6 10 -14 0
-26 45 -100 87 -143 23 -24 40 -43 37 -43 -2 0 5 -18 16 -40 l20 -40 -37 17
c-40 18 -94 52 -103 64 -3 4 -34 24 -70 45 -36 20 -71 45 -77 55 -7 9 -25 20
-39 23 -15 4 -46 26 -68 50 -23 23 -76 73 -118 109 -114 99 -188 178 -189 201
-5 190 -11 255 -33 351 -13 61 -30 124 -37 140 -7 17 -13 32 -14 35 -11 44
-29 88 -52 133 -8 15 -12 27 -8 27 3 0 -6 18 -20 40 -14 22 -25 42 -25 45 0 3
-23 30 -52 60 -53 57 -84 68 -111 41 -18 -18 -14 -171 7 -282 18 -93 56 -225
85 -289 11 -25 16 -43 11 -40 -5 3 -46 52 -91 108 -44 56 -90 112 -100 124
-10 13 -16 23 -11 23 4 0 2 4 -3 8 -9 6 -65 86 -100 141 -5 8 -26 40 -46 71
-64 100 -179 298 -179 309 0 6 -3 11 -7 11 -5 0 -17 20 -28 45 -11 25 -23 45
-27 45 -5 0 -8 6 -8 13 0 18 -28 75 -41 82 -18 12 -9 71 16 108 45 66 91 186
115 302 26 126 15 456 -20 610 -7 28 -14 61 -16 75 -7 34 -32 70 -49 70 -8 0
-23 -10 -34 -21 -35 -38 -111 -194 -126 -259 -2 -8 -10 -42 -17 -75 -16 -65
-18 -347 -4 -445 5 -30 6 -53 3 -50 -20 20 -118 285 -109 294 3 4 -1 6 -8 6
-7 0 -11 2 -8 5 3 3 -6 41 -19 83 -14 42 -26 84 -28 92 -2 8 -13 53 -25 100
-23 93 -24 99 -38 180 -6 30 -13 66 -17 80 -4 14 -8 45 -10 70 -1 25 -3 45 -4
45 -2 0 -4 22 -5 50 -2 43 2 53 26 77 16 15 32 28 36 28 17 0 153 140 201 206
99 139 182 328 227 519 29 124 25 175 -13 182 -13 3 -196 -177 -188 -185 2 -3
-4 -11 -14 -19 -34 -23 -160 -221 -219 -344 -31 -65 -60 -118 -64 -119 -4 0
-5 21 -3 48 6 67 17 240 18 285 0 20 4 37 7 37 4 0 7 6 8 13 1 15 19 122 27
162 6 29 29 116 61 235 8 30 20 65 26 76 5 12 11 33 11 48 1 14 5 26 10 26 4
0 6 3 5 8 0 4 6 24 15 44 10 21 19 45 21 55 1 10 13 38 24 63 12 25 22 50 22
55 0 6 17 9 39 9 50 -2 129 13 186 35 237 92 398 223 612 497 13 16 23 34 23
41 0 6 4 13 10 15 5 2 7 13 4 26 -10 35 -54 34 -139 -4 -22 -10 -44 -19 -50
-20 -17 -4 -120 -49 -125 -54 -3 -3 -25 -15 -50 -26 -48 -23 -252 -142 -260
-153 -7 -9 -88 -61 -95 -61 -3 0 6 20 20 45 15 24 24 49 21 54 -4 5 0 13 7 18
13 8 47 61 84 131 9 17 20 32 25 32 4 0 8 9 8 19 0 11 4 21 8 23 9 3 82 114
82 123 0 3 7 13 16 23 13 15 79 105 124 171 16 24 35 48 88 115 17 23 36 46
40 51 121 160 143 178 337 274 294 146 376 219 485 435 63 126 82 179 74 210
-6 25 -10 26 -56 24 -27 -2 -51 -4 -52 -5z"/>
<path d="M8930 9889 c0 -5 -7 -9 -15 -9 -20 0 -19 -29 4 -87 23 -60 73 -166
81 -173 3 -3 12 -18 20 -35 8 -16 28 -48 45 -70 34 -44 146 -155 157 -155 3 0
13 -6 20 -12 19 -18 91 -57 258 -139 131 -64 150 -77 195 -130 28 -33 61 -72
75 -88 39 -45 51 -60 110 -141 30 -41 59 -80 65 -86 11 -14 105 -147 120 -173
6 -9 40 -65 78 -123 37 -59 67 -112 67 -118 0 -5 4 -10 8 -10 5 0 17 -18 27
-40 10 -21 26 -48 37 -60 10 -11 16 -20 13 -20 -3 0 2 -14 10 -31 21 -39 13
-47 -16 -20 -13 12 -28 21 -34 21 -7 0 -20 9 -30 20 -10 11 -22 20 -27 20 -5
0 -14 5 -21 10 -53 45 -273 163 -287 155 -6 -4 -10 -2 -10 3 0 6 -53 31 -117
57 -95 38 -121 45 -139 36 -18 -8 -22 -16 -18 -38 5 -26 78 -134 96 -141 4 -2
8 -8 8 -14 0 -10 236 -248 246 -248 4 0 23 -13 43 -28 20 -16 56 -40 81 -53
25 -13 48 -28 52 -34 5 -7 8 -7 8 0 0 6 3 6 8 -1 6 -9 111 -52 137 -56 6 -1
28 -7 50 -13 22 -7 61 -12 87 -11 51 1 48 4 81 -74 29 -69 117 -347 146 -465
30 -120 56 -262 66 -365 3 -30 8 -71 12 -90 8 -50 9 -180 1 -180 -4 0 -10 10
-14 23 -3 12 -15 34 -26 50 -11 15 -17 27 -14 27 9 0 -65 144 -75 148 -5 2 -9
9 -9 15 0 7 -18 38 -40 70 -22 31 -40 61 -40 66 0 5 -3 11 -7 13 -5 2 -28 30
-53 62 -66 87 -177 196 -199 196 -10 0 -25 -10 -33 -22 -13 -20 -13 -31 -3
-78 7 -30 18 -77 24 -105 6 -27 13 -54 15 -60 2 -5 7 -25 11 -43 4 -18 12 -35
16 -38 5 -3 9 -12 9 -21 0 -17 60 -154 71 -163 3 -3 12 -22 20 -44 8 -21 20
-41 26 -43 7 -3 13 -11 13 -18 0 -8 6 -20 13 -27 7 -7 29 -35 49 -63 46 -62
139 -152 196 -190 l44 -29 -8 -90 c-11 -133 -12 -151 -14 -151 -1 0 -4 -11 -6
-25 -2 -14 -11 -52 -19 -85 -13 -58 -20 -89 -31 -148 -2 -15 -11 -47 -18 -70
-15 -46 -67 -216 -71 -232 -1 -5 -6 -21 -12 -35 -5 -14 -20 -54 -33 -90 -13
-36 -30 -76 -37 -90 -7 -14 -13 -30 -13 -37 0 -6 -5 -15 -12 -19 -6 -4 -9 -3
-5 2 19 31 29 371 13 459 -20 113 -79 285 -98 285 -5 0 -6 4 -3 10 3 5 0 17
-7 26 -39 47 -66 74 -76 74 -23 0 -43 -50 -67 -169 -46 -224 -51 -440 -14
-611 18 -83 73 -223 108 -275 36 -54 35 -78 -4 -149 -12 -23 -40 -75 -63 -116
-76 -141 -96 -175 -189 -322 -34 -54 -59 -98 -55 -98 4 0 -1 -5 -10 -11 -10
-5 -18 -16 -18 -24 0 -7 -3 -15 -7 -17 -5 -1 -33 -39 -63 -83 -30 -44 -59 -85
-65 -91 -5 -6 -19 -23 -30 -38 -11 -15 -33 -42 -48 -59 -16 -18 -35 -42 -44
-54 -25 -37 -35 -26 -15 15 32 61 80 240 95 347 13 100 15 220 4 231 -3 4 -18
7 -32 7 -19 0 -41 -16 -78 -56 -72 -77 -79 -86 -72 -97 3 -6 2 -10 -3 -10 -25
0 -118 -256 -147 -405 -5 -22 -10 -47 -12 -55 -3 -12 -11 -177 -13 -266 0 -12
-19 -41 -42 -66 -43 -44 -66 -86 -34 -58 13 10 16 10 16 -3 0 -23 -16 -29 -30
-12 -11 13 -17 11 -44 -14 -123 -115 -379 -311 -405 -311 -4 0 -16 -8 -27 -17
-29 -26 -124 -75 -124 -64 0 5 6 14 14 20 21 17 94 142 142 241 36 76 70 176
79 235 2 11 7 37 11 57 8 45 -8 70 -41 65 -50 -6 -239 -225 -322 -373 -58
-103 -108 -240 -116 -322 -4 -39 -30 -84 -46 -80 -3 1 -27 -7 -53 -19 -26 -12
-78 -31 -115 -43 -37 -12 -80 -28 -95 -36 -16 -9 -28 -12 -28 -9 0 3 -9 1 -19
-5 -11 -5 -37 -13 -58 -16 -54 -9 -106 -32 -98 -44 9 -14 122 -5 190 15 28 8
83 23 124 35 41 12 83 26 95 33 12 6 31 13 43 14 12 2 46 15 75 28 29 14 59
25 66 25 6 0 12 5 12 10 0 6 9 10 20 10 11 0 20 5 20 11 0 5 4 8 9 5 4 -3 29
8 55 24 25 16 46 28 46 25 0 -2 16 7 36 20 19 13 44 27 55 30 10 4 19 11 19
16 0 5 7 9 15 9 8 0 15 5 15 10 0 6 5 10 12 10 10 0 82 44 98 60 3 3 23 17 46
33 l40 27 64 -20 c74 -24 145 -33 260 -34 81 0 212 17 255 34 181 71 273 124
365 210 37 35 42 54 19 79 -16 17 -32 21 -92 22 -158 1 -227 -3 -332 -22 -139
-25 -128 -22 -157 -41 -14 -9 -43 -20 -64 -24 -21 -3 -47 -11 -56 -15 -34 -18
-28 10 9 43 101 90 253 249 285 300 10 15 38 49 63 75 26 26 67 77 93 113 25
36 49 67 52 70 3 3 17 21 30 40 13 19 27 37 31 40 3 3 27 38 53 79 64 100 64
99 106 90 63 -15 257 -10 318 7 87 25 190 78 261 134 36 27 62 50 60 50 -3 0
13 20 37 44 63 66 141 209 149 273 7 52 -150 68 -234 25 -23 -12 -41 -19 -41
-17 0 7 -122 -57 -138 -72 -7 -7 -18 -13 -24 -13 -6 0 -64 -36 -129 -80 -115
-77 -135 -86 -105 -45 8 11 12 25 9 32 -3 7 -1 13 4 13 4 0 17 17 28 38 11 20
22 39 25 42 5 5 61 110 100 190 55 110 80 172 74 183 -4 7 -3 9 1 4 7 -6 44
54 45 74 0 4 6 22 14 40 8 19 15 39 16 44 1 6 6 15 10 20 5 6 13 29 19 50 5
22 21 72 36 110 15 39 32 84 37 102 9 25 19 33 54 43 24 7 44 17 44 22 0 5 5
6 10 3 11 -7 163 62 168 76 2 5 8 9 13 9 17 0 124 88 190 157 36 37 87 100
111 138 51 79 112 195 102 195 -4 0 -2 6 3 13 17 21 45 125 41 153 -6 54 -39
55 -148 6 -85 -38 -204 -141 -275 -237 -17 -22 -32 -42 -35 -45 -16 -15 -87
-118 -93 -132 -3 -10 -11 -18 -16 -18 -5 0 -12 -10 -15 -22 -4 -13 -22 -41
-41 -62 l-35 -40 5 30 c3 16 7 43 10 59 2 17 9 50 15 75 6 25 15 72 20 105 5
33 12 71 15 85 27 133 25 563 -5 760 -22 149 -26 130 41 201 88 94 77 76 154
254 34 77 57 211 57 330 1 125 -10 183 -53 280 -25 56 -109 145 -137 145 -30
0 -70 -54 -86 -117 -8 -32 -17 -119 -20 -193 -8 -177 -11 -218 -19 -260 -3
-19 -9 -70 -11 -114 -3 -43 -7 -80 -9 -82 -2 -3 -14 28 -26 68 -12 40 -31 96
-41 123 -10 28 -35 97 -56 155 -50 145 -167 395 -262 562 -19 34 -20 63 -3 78
16 14 94 167 119 235 59 157 74 400 36 575 -28 128 -93 287 -162 397 -61 97
-105 81 -127 -47 -26 -149 -30 -194 -29 -365 1 -152 5 -223 18 -320 3 -16 7
-59 11 -95 3 -36 10 -105 16 -154 5 -49 8 -90 6 -92 -4 -4 -19 17 -80 104 -21
28 -34 52 -30 52 5 0 3 4 -2 8 -6 4 -35 41 -65 82 -30 41 -60 82 -67 90 -6 8
-42 53 -79 100 -37 47 -70 87 -73 90 -3 3 -30 33 -60 68 -29 34 -65 75 -80 91
-14 15 -39 52 -54 82 -61 118 -94 176 -125 222 -17 26 -32 51 -32 54 0 4 -33
38 -73 77 -80 78 -164 128 -270 163 -71 24 -177 37 -177 22z"/>
<path d="M5065 8899 c-35 -22 -165 -164 -165 -181 0 -5 -4 -6 -10 -3 -5 3 -10
2 -10 -3 0 -11 -24 -39 -92 -109 -28 -29 -48 -53 -45 -53 2 0 -12 -17 -32 -38
-20 -21 -63 -69 -96 -106 -33 -38 -73 -83 -90 -101 -115 -125 -173 -192 -190
-216 -11 -16 -26 -29 -32 -29 -7 0 -13 -4 -13 -8 0 -4 -20 -29 -45 -55 -25
-27 -45 -51 -45 -54 0 -3 -12 -16 -27 -29 -16 -13 -25 -24 -21 -24 3 0 -20
-28 -52 -62 -32 -35 -102 -112 -155 -173 -53 -60 -114 -128 -135 -150 -20 -22
-42 -49 -47 -60 -6 -12 -9 -150 -9 -335 1 -338 2 -341 53 -369 18 -9 29 -9 52
3 16 9 32 23 37 33 4 10 9 142 10 293 1 151 3 287 3 302 1 20 19 47 65 94 35
36 64 68 64 71 1 2 38 45 84 95 46 50 91 100 101 112 10 12 34 38 53 58 19 20
34 40 34 43 0 3 21 28 48 55 66 68 184 198 182 202 -1 2 20 26 47 54 26 28 80
86 118 129 39 42 85 93 103 112 18 19 38 43 45 53 11 16 134 154 180 202 25
26 43 10 52 -45 3 -23 13 -63 21 -88 8 -25 16 -54 18 -65 2 -10 11 -44 20 -75
9 -31 19 -67 21 -79 2 -13 9 -39 15 -59 15 -47 17 -54 20 -66 1 -5 6 -21 11
-34 5 -13 12 -40 15 -60 3 -20 9 -43 14 -51 4 -8 10 -32 14 -53 31 -172 93
-238 164 -174 26 24 28 51 7 121 -8 28 -42 150 -75 271 -66 244 -88 322 -121
441 -25 93 -22 118 13 105 13 -4 50 -9 83 -10 33 -2 63 -5 67 -8 11 -6 40 -11
113 -18 115 -11 304 -34 325 -40 8 -2 40 -7 70 -10 30 -3 62 -8 70 -10 8 -2
40 -7 70 -10 62 -7 193 -23 260 -32 25 -3 59 -7 75 -9 17 -2 46 -5 65 -8 19
-3 41 -5 48 -5 12 -1 192 -178 192 -190 0 -3 13 -20 28 -37 15 -17 47 -55 72
-84 25 -30 62 -71 82 -92 21 -21 35 -38 32 -38 -2 0 15 -19 38 -43 24 -24 61
-65 83 -93 22 -27 58 -69 80 -93 99 -107 87 -93 174 -201 25 -30 54 -64 65
-76 12 -12 41 -45 66 -74 25 -29 56 -65 70 -80 14 -15 54 -60 90 -100 36 -40
76 -85 90 -100 14 -15 50 -56 80 -91 30 -35 80 -90 110 -122 47 -49 100 -137
84 -137 -2 0 0 -9 6 -21 13 -24 23 -63 24 -99 l1 -25 -111 0 -110 0 -43 -35
c-24 -19 -48 -40 -55 -45 -6 -6 -40 -34 -76 -63 -36 -29 -74 -61 -85 -70 -26
-22 -35 -22 -67 0 -14 10 -29 18 -32 18 -4 0 -60 36 -127 80 -66 44 -122 80
-124 80 -2 0 -38 23 -79 50 -42 28 -80 50 -86 50 -5 0 -10 5 -10 10 0 6 -6 10
-13 10 -7 0 -22 8 -33 18 -10 10 -27 21 -36 25 -21 7 -23 28 -6 45 7 7 9 12 5
12 -4 0 1 9 11 20 10 11 25 33 33 48 8 15 17 29 20 32 10 9 33 55 31 63 -1 4
2 7 7 7 5 0 13 9 16 20 11 36 -45 71 -71 45 -7 -6 -26 -36 -43 -66 -17 -30
-46 -74 -64 -97 l-32 -44 23 -18 c12 -10 22 -23 22 -29 0 -6 4 -11 8 -11 5 0
9 -6 10 -12 1 -7 3 -30 6 -50 3 -33 24 -68 41 -68 6 0 166 -100 175 -110 3 -3
19 -12 35 -20 17 -8 39 -23 49 -32 11 -10 26 -18 33 -18 7 0 13 -4 13 -10 0
-5 7 -10 15 -10 8 0 15 -4 15 -9 0 -5 10 -13 23 -17 12 -4 24 -10 27 -13 3 -4
21 -17 41 -29 61 -37 66 -49 33 -77 -16 -14 -40 -25 -54 -26 -14 0 -144 -1
-290 -2 l-265 -2 -50 48 c-96 93 -79 90 -495 92 -201 1 -368 3 -372 3 -8 2 -3
167 5 192 3 8 8 47 11 85 l6 70 -70 68 c-131 127 -222 259 -235 342 -11 71 38
152 105 173 47 15 110 9 144 -13 30 -20 76 -86 76 -109 0 -8 7 -16 15 -20 8
-3 15 -12 15 -21 0 -8 7 -15 15 -15 22 0 11 117 -16 175 -26 55 -86 110 -134
124 -56 15 -138 6 -197 -24 -53 -26 -183 -150 -173 -165 3 -5 1 -10 -5 -12
-26 -8 -121 -336 -137 -473 -9 -69 -9 -363 -1 -400 4 -16 8 -50 10 -75 l3 -45
-45 0 -44 0 -16 83 c-9 45 -14 82 -12 82 3 0 -1 6 -7 13 -6 8 -9 16 -6 18 4 5
-17 125 -33 191 -5 20 -8 39 -5 41 2 3 -1 25 -8 48 -6 24 -13 55 -15 69 -5 37
-22 131 -30 162 -3 16 -11 25 -17 21 -6 -3 -7 -1 -3 6 9 14 -27 56 -66 76 -31
17 -114 20 -153 5 -26 -10 -79 -54 -81 -68 0 -4 -6 -20 -13 -36 -15 -36 -3
-183 19 -246 5 -14 8 -36 7 -50 -2 -24 -4 -25 -81 -25 l-80 0 -2 76 c-3 99 -9
152 -25 214 -14 57 -48 115 -66 115 -7 0 -13 5 -13 10 0 15 -48 12 -85 -6 -49
-23 -141 -119 -161 -168 -14 -34 -29 -49 -73 -73 -175 -97 -192 -203 -47 -302
34 -22 66 -41 72 -41 5 0 29 -9 52 -20 22 -11 47 -20 55 -20 8 0 22 -10 33
-21 l19 -21 -55 6 c-30 3 -90 9 -132 12 l-78 7 0 -77 0 -76 43 -1 c23 -1 45
-1 50 0 4 1 28 -4 55 -10 26 -6 56 -12 67 -13 43 -6 203 -82 247 -117 20 -16
39 -29 42 -29 3 0 40 -36 83 -79 87 -89 148 -183 187 -289 35 -99 47 -168 50
-294 0 -31 4 -60 8 -64 8 -8 3056 -10 3064 -2 2 3 6 50 8 104 8 221 93 412
253 565 101 97 179 145 307 188 76 25 92 29 186 37 36 4 67 8 69 10 2 2 4 27
3 56 -1 100 8 91 -79 85 -99 -8 -121 -12 -185 -32 -66 -20 -171 -67 -180 -80
-4 -5 -8 -7 -8 -2 0 4 -17 -4 -38 -17 -21 -13 -44 -21 -50 -17 -7 4 -21 36
-31 72 -70 239 -84 286 -91 304 -4 11 -22 70 -40 130 -33 111 -56 149 -150
246 -23 24 -77 84 -191 214 -24 27 -54 60 -66 73 -13 12 -23 25 -23 28 0 3
-15 22 -34 42 -19 20 -44 48 -56 62 -39 46 -135 154 -167 189 -18 19 -33 38
-33 43 0 4 -7 8 -15 8 -8 0 -15 7 -15 15 0 7 -6 18 -13 22 -8 4 -18 15 -23 25
-5 9 -40 50 -79 91 -38 41 -86 94 -105 118 -19 24 -48 56 -63 71 -15 16 -25
28 -23 28 3 0 -15 21 -39 46 -25 25 -45 47 -45 49 0 2 -15 19 -32 38 -78 82
-145 157 -173 192 -16 21 -51 61 -77 88 -27 27 -48 52 -48 56 0 3 -13 12 -29
19 -37 16 -50 19 -271 47 -69 9 -136 18 -150 20 -14 2 -47 6 -75 10 -54 6 -89
10 -145 19 -56 9 -202 27 -246 30 -22 2 -49 6 -60 10 -11 3 -44 8 -75 10 -30
3 -84 9 -119 15 -36 5 -92 13 -125 17 -33 3 -73 8 -90 10 -110 13 -142 13
-160 3z m-601 -1714 c29 -31 42 -83 52 -192 4 -56 3 -83 -4 -83 -6 0 -13 9
-17 19 -9 29 -65 81 -105 98 -19 8 -56 15 -83 16 -26 0 -50 4 -53 9 -9 15 78
122 90 111 3 -4 6 -1 6 5 0 14 48 41 73 42 10 0 28 -11 41 -25z m-75 -203 c37
-24 53 -43 79 -89 22 -40 29 -74 15 -72 -5 1 -45 1 -90 0 -73 -1 -83 -3 -83
-19 0 -30 -11 -32 -34 -9 -41 41 -70 159 -48 194 16 26 118 22 161 -5z m-209
-51 c0 -59 32 -129 80 -179 56 -56 71 -106 33 -108 -13 -1 -23 2 -23 6 0 4
-12 11 -27 15 -89 22 -198 101 -205 149 -4 21 10 56 26 67 5 4 5 12 1 19 -5 9
-4 11 3 6 6 -4 21 3 32 14 19 19 53 38 73 39 4 1 7 -12 7 -28z m1295 -534 c21
8 155 9 155 1 0 -4 13 -3 30 2 16 5 32 5 35 0 3 -5 18 -5 33 -1 15 5 36 5 47
1 11 -4 24 -5 29 -2 5 2 70 4 145 3 163 -2 149 -2 186 2 17 1 38 -1 48 -6 9
-4 17 -4 17 0 0 7 106 9 135 3 6 -1 12 -1 15 0 13 5 70 4 70 -1 0 -3 10 -4 23
-2 47 9 110 -81 91 -130 -8 -22 11 -30 70 -28 92 2 86 18 86 -223 0 -151 -3
-215 -12 -224 -7 -7 -39 -12 -75 -12 -35 0 -63 -3 -64 -7 0 -5 -2 -30 -4 -57
-6 -71 -42 -106 -113 -109 -29 -1 -52 2 -53 8 0 7 -2 7 -5 0 -3 -6 -173 -10
-485 -9 l-481 1 -32 32 -31 31 -3 327 c-2 324 -2 327 20 360 17 24 34 35 63
41 22 4 41 5 43 1 2 -5 10 -5 17 -2z"/>
<path d="M5717 6354 c-3 -3 -68 -5 -146 -5 -202 0 -184 33 -186 -340 0 -167 1
-312 3 -321 2 -9 16 -21 31 -26 20 -6 1001 -10 1032 -3 11 2 29 55 29 86 1 17
1 149 1 295 0 216 -3 269 -15 285 -14 19 -28 20 -247 22 -128 1 -238 4 -246 7
-7 3 -13 2 -13 -2 0 -8 -204 -6 -225 2 -7 2 -15 2 -18 0z m-47 -84 c17 -11 23
-196 6 -219 -8 -11 -8 -13 1 -8 13 8 13 -39 0 -60 -4 -6 -3 -14 2 -18 10 -5 7
-42 -4 -53 -2 -3 0 -12 7 -19 9 -11 9 -17 -3 -24 -8 -5 -9 -9 -4 -9 6 0 11
-18 12 -40 1 -29 -2 -38 -10 -33 -8 5 -8 2 1 -9 12 -15 8 -46 -7 -49 -38 -8
-177 -6 -188 2 -10 9 -13 69 -13 265 0 139 3 260 6 269 5 12 24 15 93 15 47 0
93 -4 101 -10z m266 -2 c8 -13 7 -528 -1 -537 -9 -9 -180 -10 -194 -1 -10 5
-13 71 -14 267 0 143 3 264 6 270 8 13 195 15 203 1z m248 6 c13 -5 15 -42 15
-269 1 -197 -2 -265 -12 -273 -16 -13 -186 -12 -195 2 -11 17 -11 519 1 534
10 12 161 18 191 6z"/>
<path d="M5533 6221 c-10 -7 -10 -427 0 -437 8 -8 85 -10 93 -1 6 6 5 429 -1
436 -7 7 -83 9 -92 2z"/>
<path d="M5796 6218 c-15 -8 -16 -33 -16 -226 l1 -217 37 2 c20 1 45 2 55 2
16 1 17 17 17 221 -1 121 -4 220 -8 221 -37 6 -72 5 -86 -3z"/>
<path d="M6049 6220 c-9 -6 -16 -426 -6 -436 2 -2 25 -5 50 -7 36 -2 47 1 48
13 1 8 2 108 3 223 1 177 -1 207 -14 208 -51 5 -72 4 -81 -1z"/>
<path d="M6537 6176 c-2 -6 -3 -50 -2 -98 1 -55 -2 -85 -8 -81 -6 4 -7 1 -1
-8 5 -8 9 -43 10 -79 1 -36 2 -68 3 -72 1 -9 79 -3 88 5 7 8 6 327 -1 334 -11
11 -85 10 -89 -1z"/>
<path d="M5880 8487 c-67 -9 -146 -44 -169 -73 -10 -13 -21 -20 -25 -17 -3 3
-6 0 -6 -8 0 -8 -9 -25 -20 -39 -11 -14 -20 -35 -20 -47 0 -13 -4 -23 -8 -23
-5 0 -9 -6 -9 -12 0 -7 -3 -33 -7 -58 -7 -40 -11 -157 -7 -201 1 -14 77 -64
206 -134 28 -15 57 -33 66 -41 8 -8 19 -14 24 -14 4 0 24 -10 44 -22 20 -13
38 -23 41 -23 3 -1 30 -17 60 -36 108 -70 267 -159 283 -159 10 0 17 8 18 18
0 9 2 24 4 32 2 8 6 26 9 39 3 13 10 39 17 58 6 19 9 40 6 47 -3 7 -38 32 -79
56 -40 25 -75 47 -78 50 -3 3 -17 11 -32 19 l-28 14 0 118 c0 84 3 118 13 121
6 3 94 4 193 4 160 -2 181 0 176 14 -5 13 -181 190 -214 215 -24 18 -116 65
-160 82 -51 19 -225 31 -298 20z"/>
<path d="M6227 8110 c-14 -5 -17 -128 -4 -165 8 -23 106 -80 117 -68 27 30 42
232 17 234 -36 4 -119 4 -130 -1z"/>
<path d="M5690 7881 c0 -44 136 -175 195 -187 6 -1 24 -5 40 -9 51 -13 125
-17 125 -8 0 12 -56 44 -64 36 -3 -3 -6 -1 -6 5 0 7 -7 12 -15 12 -8 0 -15 5
-15 10 0 6 -7 10 -15 10 -8 0 -15 5 -15 11 0 5 -4 8 -9 4 -5 -3 -12 -1 -16 5
-8 13 -85 53 -85 44 0 -4 -11 5 -24 19 -13 14 -27 23 -30 20 -3 -4 -6 -1 -6 5
0 7 -8 12 -18 12 -10 0 -23 5 -30 12 -9 9 -12 9 -12 -1z"/>
<path d="M5685 7480 c-52 -8 -81 -27 -100 -66 -22 -47 -18 -85 15 -149 44 -84
66 -113 150 -195 127 -125 307 -230 455 -265 6 -1 17 -5 25 -8 8 -3 26 -8 40
-11 14 -3 30 -6 35 -7 27 -6 94 -20 125 -26 19 -4 99 -7 177 -8 l142 0 29 30
c16 17 32 39 36 50 10 25 13 85 5 79 -4 -2 -14 12 -23 30 -21 45 -51 54 -201
60 -131 5 -182 10 -205 19 -8 3 -29 8 -47 11 -81 11 -256 85 -328 139 -86 63
-139 126 -195 231 -35 65 -80 94 -135 86z"/>
<path d="M3954 6235 c-7 -5 -14 -26 -16 -45 -3 -31 -7 -35 -33 -38 -24 -2 -34
3 -48 27 l-18 30 -34 -16 c-19 -9 -35 -20 -35 -25 0 -4 -5 -8 -12 -8 -6 0 -33
-14 -59 -31 l-48 -30 16 -34 c9 -18 13 -40 10 -49 -8 -20 -57 -33 -67 -16 -13
20 -52 7 -69 -25 -9 -16 -29 -51 -44 -76 -34 -58 -34 -71 2 -92 24 -14 29 -22
25 -44 -6 -31 -19 -42 -43 -36 -9 2 -24 -2 -34 -9 -14 -11 -18 -28 -18 -88 -1
-139 -4 -128 42 -132 33 -2 44 -8 50 -26 7 -20 4 -28 -21 -50 -34 -30 -36 -39
-15 -78 8 -16 15 -25 15 -20 0 4 12 -15 28 -44 34 -66 54 -80 79 -57 21 19 58
13 68 -11 3 -8 0 -30 -6 -49 -10 -30 -9 -37 7 -52 11 -9 27 -20 36 -23 9 -4
36 -19 60 -34 58 -38 64 -37 89 2 18 30 23 33 42 22 12 -6 23 -11 25 -10 13
10 22 -4 20 -33 -1 -19 1 -37 5 -41 3 -4 52 -7 109 -7 l103 0 3 41 c3 35 7 42
33 51 28 10 31 8 51 -24 19 -33 48 -48 48 -25 0 6 5 10 11 10 6 0 24 9 40 21
16 11 29 17 29 12 0 -4 4 -3 8 3 4 6 22 19 40 28 17 9 32 18 32 21 0 2 -8 20
-17 40 -16 35 -16 36 5 58 22 21 22 21 56 3 19 -10 39 -15 44 -12 6 3 20 27
33 54 12 26 25 49 28 52 8 7 41 67 41 74 0 3 -13 12 -30 21 -20 10 -30 23 -30
38 0 35 12 45 55 49 l40 3 1 100 c0 55 -1 105 -3 111 -2 6 -22 10 -43 9 -38
-1 -40 0 -46 34 -5 23 -3 36 4 39 7 2 21 11 33 21 20 16 20 17 2 51 -10 19
-21 37 -24 40 -3 3 -14 21 -25 40 -36 66 -44 72 -70 55 -31 -20 -47 -19 -68 4
-16 18 -16 21 -1 51 20 39 19 40 -79 99 -81 48 -99 50 -114 15 -10 -21 -18
-25 -45 -22 -30 3 -32 6 -37 48 l-5 45 -99 0 c-54 0 -105 -4 -112 -10z m215
-284 c87 -25 185 -120 217 -208 20 -53 25 -239 8 -251 -6 -4 -17 -23 -24 -42
-30 -72 -122 -148 -219 -179 -98 -32 -250 3 -324 74 -50 49 -77 82 -77 95 0 6
-4 10 -8 10 -18 0 -34 93 -30 182 5 111 25 162 96 233 92 92 229 125 361 86z"/>
<path d="M3975 5785 c-96 -48 -138 -157 -97 -246 57 -121 216 -153 310 -63 17
16 32 36 34 44 2 8 7 18 12 22 14 9 17 98 5 135 -11 33 -60 89 -98 111 -45 26
-112 25 -166 -3z"/>
<path d="M8690 6242 c-6 -2 -10 -18 -10 -35 0 -41 -9 -53 -42 -59 -22 -4 -29
0 -44 28 l-18 32 -60 -30 c-34 -17 -62 -34 -64 -39 -2 -5 -9 -9 -16 -9 -7 0
-20 -6 -30 -13 -17 -12 -17 -16 -3 -49 14 -34 14 -38 -2 -57 -19 -22 -61 -29
-61 -11 0 6 -11 10 -23 10 -17 0 -29 -10 -43 -37 -10 -21 -21 -40 -24 -43 -3
-3 -17 -27 -30 -54 -17 -33 -21 -50 -13 -53 6 -2 21 -13 34 -24 19 -16 21 -24
13 -47 -7 -21 -16 -27 -42 -28 -17 -1 -35 -2 -39 -3 -6 -1 -9 -140 -4 -208 1
-8 16 -13 40 -13 33 0 40 -4 45 -25 4 -14 2 -33 -3 -43 -6 -9 -11 -13 -11 -8
0 6 -9 0 -21 -12 l-20 -23 48 -86 c26 -47 54 -88 61 -90 7 -3 21 2 31 11 23
21 44 20 63 -1 17 -19 16 -49 -1 -66 -20 -20 -12 -37 24 -54 19 -9 35 -20 35
-25 0 -4 5 -8 11 -8 6 0 23 -8 37 -18 39 -27 61 -33 72 -19 5 7 18 22 28 34
15 20 20 21 42 10 18 -9 26 -23 30 -52 l5 -39 100 1 c55 1 103 2 108 2 4 1 7
16 7 34 0 63 49 77 91 26 l25 -31 51 31 c27 17 53 31 57 31 4 0 12 5 19 10 7
6 21 17 32 24 19 14 19 15 2 51 -17 36 -17 38 0 54 25 22 37 23 69 6 27 -14
54 -6 54 16 0 4 18 37 40 71 22 35 40 68 40 74 0 5 -13 20 -29 32 -25 18 -28
26 -22 49 6 23 14 29 47 33 l39 5 0 109 0 110 -37 1 c-43 1 -44 1 -52 41 -6
28 -4 32 24 44 35 14 38 31 12 68 -11 15 -32 51 -47 80 -21 39 -34 52 -51 52
-13 0 -26 -4 -29 -10 -10 -15 -34 -12 -55 8 -19 18 -19 19 0 54 l19 36 -39 26
c-22 14 -44 26 -49 26 -5 0 -11 4 -13 8 -1 4 -22 17 -46 29 l-42 21 -21 -30
c-17 -23 -27 -29 -53 -26 -28 3 -31 6 -32 41 -1 20 -4 41 -8 44 -7 7 -187 11
-206 5z m222 -297 c37 -13 74 -30 83 -39 9 -8 24 -21 34 -28 25 -18 74 -93 96
-148 29 -72 23 -188 -14 -265 -34 -69 -96 -133 -161 -166 -61 -32 -62 -32
-165 -33 -78 -1 -97 3 -145 26 -88 43 -147 108 -181 197 -17 45 -19 71 -16
141 6 102 8 109 30 143 9 15 17 30 17 35 0 11 55 67 96 99 79 60 215 76 326
38z"/>
<path d="M8717 5790 c-62 -29 -110 -93 -121 -160 -10 -67 60 -174 129 -196 65
-21 140 -6 190 38 93 81 95 190 5 277 -60 58 -136 74 -203 41z"/>
<path d="M7310 4927 c-46 -12 -105 -51 -133 -89 -40 -55 -52 -98 -51 -183 0
-91 21 -144 75 -189 58 -49 86 -58 168 -54 69 3 82 7 126 39 73 52 103 117
103 223 0 85 -15 129 -63 189 -46 55 -148 84 -225 64z m85 -77 c23 0 85 -60
100 -98 34 -80 5 -199 -59 -245 -65 -46 -160 -15 -203 66 -25 48 -22 155 6
201 33 53 93 90 129 80 8 -2 20 -4 27 -4z"/>
<path d="M4246 4911 c-3 -5 26 -56 64 -114 l71 -105 -53 -78 c-29 -44 -56 -80
-60 -82 -5 -2 -8 -8 -8 -14 0 -5 -9 -21 -20 -35 -11 -14 -20 -34 -20 -44 0
-16 8 -19 44 -19 l45 0 46 93 c66 131 66 131 111 61 20 -33 48 -80 62 -106 24
-47 26 -48 73 -48 31 0 49 4 49 12 0 15 -39 80 -106 178 -56 82 -63 103 -41
117 21 14 127 162 127 178 0 13 -10 15 -47 13 -45 -3 -49 -6 -68 -43 -12 -22
-32 -60 -47 -84 l-26 -44 -25 40 c-14 22 -36 61 -49 86 -22 45 -24 46 -70 47
-26 0 -49 -4 -52 -9z"/>
<path d="M4835 4868 c-9 -29 -26 -73 -37 -98 -10 -25 -23 -54 -28 -65 -18 -43
-39 -93 -69 -162 -17 -39 -32 -82 -33 -95 -3 -21 1 -23 44 -26 45 -3 46 -2 53
30 4 18 14 55 23 81 l17 48 95 -3 95 -3 25 -77 25 -78 47 0 c27 0 48 4 48 10
0 10 -27 91 -41 125 -5 11 -39 97 -77 190 l-68 170 -50 3 -51 3 -18 -53z m88
-101 c3 -12 14 -46 26 -74 l21 -53 -70 0 c-39 0 -70 2 -70 6 0 3 14 41 31 85
24 60 35 77 44 69 7 -6 15 -21 18 -33z"/>
<path d="M5220 4680 c0 -132 0 -243 0 -247 0 -5 18 -9 41 -11 l41 -3 -3 176
c-3 121 -1 171 6 160 6 -9 52 -76 103 -148 52 -73 101 -144 110 -159 13 -22
24 -28 52 -28 l35 0 -2 247 -2 248 -38 0 -38 0 1 -163 c1 -90 -2 -159 -5 -155
-4 4 -54 79 -111 165 l-105 157 -42 1 -43 0 0 -240z"/>
<path d="M5682 4888 l3 -33 78 1 78 1 -1 -201 c0 -110 -1 -209 0 -218 0 -15 9
-18 45 -18 l45 0 -3 210 c-2 116 0 215 3 219 3 5 37 9 75 8 l70 -2 3 33 3 32
-201 0 -201 0 3 -32z"/>
<path d="M6155 4670 l0 -250 49 0 49 0 -7 115 -6 115 104 0 105 0 -4 -116 -3
-115 46 3 46 3 -1 240 c-1 132 -2 244 -2 248 -1 5 -20 7 -43 5 l-43 -3 -1 -90
c0 -49 -1 -95 -2 -101 -1 -7 -35 -11 -99 -10 l-98 1 3 103 3 102 -48 0 -48 0
0 -250z"/>
<path d="M6679 4918 c0 -2 -2 -115 -2 -251 l-2 -248 45 3 45 3 0 100 0 99 35
2 c78 3 108 -25 150 -143 l23 -63 48 0 49 0 -24 63 c-37 98 -67 157 -88 171
-16 11 -16 14 -4 19 25 10 66 84 66 119 0 44 -33 96 -72 112 -27 12 -266 24
-269 14z m218 -84 c51 -32 34 -110 -27 -131 -19 -7 -52 -12 -72 -12 l-38 -1 0
79 c0 67 3 80 18 84 26 8 94 -3 119 -19z"/>
<path d="M7710 4670 l0 -250 41 0 41 0 -5 175 c-2 96 -3 175 -1 175 1 0 35
-48 75 -107 39 -60 77 -111 83 -115 6 -4 8 -8 4 -8 -4 0 -1 -8 7 -17 8 -10 28
-37 45 -60 23 -34 36 -43 59 -43 16 0 31 6 33 13 2 6 3 118 3 247 l-1 235 -40
3 -40 3 4 -168 4 -168 -72 105 c-39 58 -90 133 -112 168 -40 60 -42 62 -85 62
l-43 0 0 -250z"/>
<path d="M8210 4886 c0 -19 6 -36 13 -39 13 -5 97 -1 175 8 l43 5 -36 -66
c-49 -90 -90 -155 -147 -239 -33 -48 -48 -79 -48 -102 l0 -33 170 0 170 0 0
45 0 46 -57 -6 c-91 -10 -157 -13 -165 -8 -9 5 26 69 134 249 43 71 78 140 78
152 0 22 -2 22 -165 22 l-165 0 0 -34z"/>
<path d="M4649 4149 c-10 -6 -11 -9 -1 -9 8 0 12 -23 12 -79 0 -54 -4 -81 -12
-84 -7 -3 -1 -6 14 -6 19 -1 26 3 22 12 -3 8 -6 44 -7 81 -3 77 -4 78 64 -31
21 -35 43 -63 49 -63 6 0 10 33 10 84 0 58 4 86 12 88 7 3 3 7 -9 10 -11 3
-27 2 -34 -3 -10 -6 -11 -9 -1 -9 8 0 12 -19 12 -62 l0 -63 -42 67 c-42 67
-64 83 -89 67z"/>
<path d="M5021 4133 c-7 -16 -7 -23 0 -23 5 0 12 7 15 15 4 8 16 15 29 15 21
0 23 -4 23 -72 0 -40 -4 -79 -10 -85 -8 -10 -5 -13 13 -13 24 0 24 1 21 85 -3
80 -2 85 17 85 11 0 27 -10 35 -22 17 -23 20 -18 10 17 -4 18 -13 20 -74 20
-62 0 -70 -2 -79 -22z"/>
<path d="M5218 4148 c17 -17 16 -165 0 -171 -7 -3 2 -6 21 -6 25 -1 31 2 24
12 -16 20 -10 147 7 157 13 9 13 10 0 11 -8 0 -26 3 -40 5 -19 4 -22 2 -12 -8z"/>
<path d="M5365 4151 c-37 -16 -58 -49 -58 -93 0 -34 6 -47 32 -70 17 -15 39
-28 49 -27 13 0 12 2 -5 9 -61 25 -65 142 -5 175 29 15 20 19 -13 6z"/>
<path d="M5428 4142 c45 -34 45 -139 1 -163 -29 -15 -17 -22 14 -8 31 14 47
48 47 99 0 30 -6 43 -31 64 -17 14 -36 26 -42 26 -7 0 -2 -8 11 -18z"/>
<path d="M5545 4149 c-11 -4 -14 -8 -7 -8 8 -1 12 -24 12 -80 0 -54 -4 -81
-12 -84 -7 -3 0 -6 15 -6 18 -1 26 3 21 10 -7 13 -9 127 -1 135 3 3 24 -27 48
-67 61 -100 69 -100 69 5 0 54 4 86 11 86 5 0 8 4 5 8 -6 10 -42 9 -52 -1 -4
-4 -2 -7 4 -7 8 0 12 -21 12 -62 l0 -61 -38 59 c-47 72 -61 84 -87 73z"/>
<path d="M5803 4153 c-7 -3 -13 -11 -13 -19 0 -21 -52 -148 -64 -156 -6 -4 3
-7 19 -7 17 0 25 3 18 5 -17 7 5 54 26 54 13 0 13 2 3 9 -11 7 -11 15 0 50
l15 42 15 -39 c14 -35 14 -40 -1 -51 -9 -6 -11 -10 -6 -7 18 8 37 -10 38 -38
2 -22 7 -26 32 -26 19 0 25 3 18 8 -7 5 -24 42 -39 83 -27 78 -41 100 -61 92z"/>
<path d="M5930 4150 c0 -4 3 -10 8 -14 11 -12 9 -150 -3 -158 -9 -7 11 -10 70
-10 49 0 53 2 64 35 l11 32 -25 -27 c-16 -19 -34 -28 -55 -28 l-30 0 0 80 c0
47 4 80 10 80 6 0 10 3 10 8 0 4 -13 7 -30 7 -16 1 -30 -2 -30 -5z"/>
<path d="M6180 4148 c0 -5 5 -8 10 -8 15 0 13 -157 -2 -163 -7 -3 5 -6 27 -6
27 0 35 2 26 8 -19 12 -24 151 -5 158 25 9 14 19 -21 18 -19 0 -35 -3 -35 -7z"/>
<path d="M6289 4149 c-10 -6 -11 -9 -1 -9 8 0 12 -23 12 -79 0 -54 -4 -81 -12
-84 -7 -3 3 -6 22 -6 22 0 30 2 22 8 -14 8 -24 141 -11 141 4 0 27 -34 51 -75
23 -41 49 -75 56 -75 9 0 12 24 12 85 0 50 4 85 10 85 6 0 10 4 10 8 0 5 -10
8 -22 6 -13 -1 -27 -3 -33 -3 -5 -1 -4 -5 3 -10 9 -5 12 -26 10 -65 l-3 -58
-38 65 c-37 64 -62 83 -88 66z"/>
<path d="M6500 4140 c-11 -11 -20 -24 -20 -29 0 -20 37 -49 76 -60 59 -16 69
-55 21 -80 -21 -11 -21 -11 3 -5 39 10 51 25 48 58 -3 27 -10 34 -58 53 -59
23 -73 46 -43 68 10 9 13 14 6 15 -7 0 -22 -9 -33 -20z"/>
<path d="M6586 4126 c20 -20 37 -36 38 -36 2 0 1 14 -2 30 -3 21 -10 30 -22
30 -10 0 -26 3 -34 6 -9 3 0 -10 20 -30z"/>
<path d="M6660 4146 c-6 -6 -10 -19 -10 -30 0 -20 1 -20 16 2 8 12 24 22 35
22 17 0 19 -7 19 -79 0 -55 -4 -81 -12 -84 -7 -2 -1 -6 15 -9 15 -3 30 -1 33
3 3 5 0 9 -5 9 -7 0 -11 30 -11 80 0 77 1 80 23 80 15 0 28 -9 35 -22 10 -21
11 -22 11 -3 0 11 -3 25 -7 30 -9 13 -130 13 -142 1z"/>
<path d="M6840 4149 c0 -5 5 -9 10 -9 6 0 10 -33 10 -80 0 -57 -4 -80 -12 -80
-10 0 -9 -3 1 -9 19 -12 54 -2 42 13 -4 6 -9 44 -9 84 -1 60 2 72 15 72 27 0
9 10 -25 14 -18 2 -32 -1 -32 -5z"/>
<path d="M6922 4135 c-6 -14 -8 -25 -3 -25 13 0 42 36 34 43 -12 12 -20 8 -31
-18z"/>
<path d="M6970 4148 c0 -5 5 -8 10 -8 15 0 13 -157 -2 -163 -7 -3 3 -5 22 -5
19 0 29 2 23 5 -9 3 -13 30 -13 84 0 72 2 79 19 79 11 0 27 -10 35 -22 15 -21
16 -21 16 -3 0 11 -4 25 -8 30 -8 12 -102 14 -102 3z"/>
<path d="M7110 4148 c0 -5 5 -8 10 -8 6 0 10 -30 10 -71 0 -80 10 -97 64 -106
28 -4 39 -1 60 20 23 23 26 35 26 92 0 37 4 65 10 65 6 0 10 4 10 9 0 4 -12 7
-26 5 -26 -2 -47 -14 -26 -14 18 0 16 -128 -2 -146 -19 -19 -61 -18 -80 2 -18
18 -23 144 -6 144 6 0 10 4 10 8 0 4 -13 8 -30 7 -16 0 -30 -3 -30 -7z"/>
<path d="M7311 4133 c-7 -15 -7 -23 0 -23 5 0 12 7 15 15 4 8 17 15 30 15 23
0 24 -2 24 -79 0 -55 -4 -81 -12 -84 -7 -2 -1 -6 15 -9 15 -3 30 -1 33 3 3 5
0 9 -5 9 -7 0 -11 30 -11 80 0 77 1 80 23 80 15 0 28 -9 35 -22 10 -21 11 -22
11 -3 1 34 -11 40 -81 41 -60 0 -68 -2 -77 -23z"/>
<path d="M7503 4148 c-2 -5 1 -8 6 -8 16 0 14 -157 -1 -163 -7 -3 22 -6 65 -6
72 -1 78 1 86 22 12 31 5 34 -18 9 -13 -16 -30 -22 -60 -22 l-41 0 0 40 c0 33
3 40 19 40 11 0 27 -7 35 -16 15 -14 16 -12 16 23 -1 31 -3 35 -11 21 -5 -10
-21 -18 -34 -18 -22 0 -25 5 -25 35 0 35 0 35 44 35 35 0 48 -5 60 -22 17 -24
23 -5 7 21 -9 15 -139 22 -148 9z"/>
<path d="M7850 4153 c-27 -10 -51 -43 -57 -78 -4 -27 0 -43 18 -70 58 -85 178
-36 165 68 -5 43 -26 72 -59 81 -21 5 -21 5 2 -13 33 -25 39 -118 10 -150 -52
-56 -121 7 -104 95 4 25 16 41 38 54 30 18 22 26 -13 13z"/>
<path d="M8030 4149 c-14 -4 -18 -7 -10 -8 13 -1 16 -16 17 -73 0 -40 -4 -79
-9 -85 -8 -10 -2 -13 23 -12 19 0 28 3 22 6 -7 2 -13 20 -13 39 0 30 3 34 25
34 14 0 25 -4 25 -10 0 -5 4 -10 9 -10 5 0 9 14 9 30 -1 28 -2 29 -18 15 -31
-28 -50 -19 -50 24 0 22 5 41 12 43 23 8 -17 15 -42 7z"/>
<path d="M8090 4148 c0 -4 11 -8 24 -8 14 0 32 -10 40 -22 16 -23 21 -8 8 22
-7 16 -72 23 -72 8z"/>
<path d="M4880 4074 c-13 -43 -31 -83 -38 -91 -11 -11 -10 -13 7 -13 14 0 21
6 21 19 0 31 25 48 59 43 29 -4 35 -13 34 -49 -1 -8 12 -13 31 -13 20 0 26 3
18 8 -7 5 -25 44 -40 88 -21 59 -33 80 -48 82 -16 2 -23 -11 -44 -74z m51 16
c6 -16 10 -33 10 -37 -1 -9 -51 -13 -51 -5 0 10 24 72 28 72 1 0 8 -13 13 -30z"/>
<path d="M6482 4007 c2 -15 8 -28 13 -29 6 0 21 -4 35 -9 l25 -9 -22 17 c-12
10 -29 27 -38 38 -15 19 -15 19 -13 -8z"/>
<path d="M5845 3850 c-37 -14 -60 -50 -60 -95 0 -48 16 -72 63 -92 30 -12 38
-12 70 4 20 10 38 24 40 31 2 7 -10 4 -32 -9 -31 -18 -40 -20 -65 -9 -71 29
-62 137 13 164 13 4 28 -4 53 -31 31 -33 34 -35 28 -13 -5 14 -8 30 -8 37 0 6
-7 12 -16 12 -9 0 -27 2 -41 4 -14 3 -34 1 -45 -3z"/>
<path d="M6468 3844 c-28 -15 -58 -61 -58 -89 0 -29 30 -74 58 -88 55 -27 115
0 131 60 23 83 -58 156 -131 117z m85 -22 c22 -19 23 -99 1 -130 -33 -48 -103
-16 -108 50 -7 87 49 129 107 80z"/>
<path d="M6858 3842 c-71 -34 -69 -146 2 -176 66 -27 120 7 127 81 5 45 2 52
-27 81 -33 34 -56 37 -102 14z m102 -82 c0 -57 -22 -90 -59 -90 -52 0 -78 57
-59 127 6 25 16 35 41 41 48 13 77 -16 77 -78z"/>
<path d="M7067 3830 c-32 -28 -35 -35 -33 -76 4 -76 67 -119 129 -87 17 9 27
10 27 3 0 -6 4 -9 9 -6 5 3 9 21 9 40 0 19 3 39 7 45 4 7 -6 11 -27 10 -18 0
-27 -3 -20 -6 15 -6 16 -55 0 -71 -18 -18 -63 -14 -82 7 -10 11 -20 37 -23 58
-10 78 79 133 109 67 13 -28 28 -32 23 -6 -2 9 -4 22 -4 29 -1 6 -9 11 -18 11
-10 0 -30 2 -44 6 -21 6 -34 1 -62 -24z"/>
<path d="M5386 3834 c-12 -31 -6 -37 14 -16 39 42 50 30 50 -56 0 -47 -5 -83
-12 -90 -9 -9 -3 -12 28 -12 28 0 35 3 24 10 -10 6 -14 30 -15 89 -1 71 1 81
17 81 10 0 23 -9 30 -20 17 -27 26 -25 20 5 -4 24 -7 25 -77 25 -57 0 -74 -3
-79 -16z"/>
<path d="M5588 3838 c7 -7 12 -41 12 -85 0 -58 -3 -74 -17 -82 -13 -8 4 -10
66 -8 83 2 85 3 92 30 9 33 6 34 -25 2 -17 -17 -36 -25 -61 -25 -34 0 -35 1
-35 40 0 36 3 40 25 40 13 0 29 -8 34 -17 9 -15 10 -12 11 15 0 33 -8 40 -27
21 -21 -21 -43 -2 -43 36 0 34 1 35 38 35 25 0 46 -7 60 -20 22 -21 27 -16 16
14 -5 13 -22 16 -82 16 -59 0 -73 -3 -64 -12z"/>
<path d="M5988 3838 c7 -7 12 -41 12 -83 0 -42 -5 -76 -12 -83 -9 -9 -5 -12
20 -12 30 0 32 2 22 21 -6 11 -10 30 -8 42 2 18 11 23 51 27 26 4 50 4 52 1 3
-2 5 -21 5 -42 0 -27 -5 -39 -17 -42 -10 -3 0 -5 22 -5 22 0 34 2 28 5 -9 3
-13 30 -13 83 0 65 3 81 18 89 14 8 9 10 -22 11 -31 0 -37 -3 -28 -12 7 -7 12
-26 12 -43 0 -31 0 -31 -52 -31 -51 1 -53 2 -55 31 -1 16 3 35 9 42 8 10 3 13
-23 13 -26 0 -30 -3 -21 -12z"/>
<path d="M6218 3833 c15 -30 9 -153 -8 -163 -11 -7 -4 -10 25 -10 31 1 36 3
23 10 -13 8 -17 24 -16 80 1 39 2 70 4 70 1 0 25 -36 53 -80 28 -44 55 -80 60
-80 5 0 9 39 8 86 -1 65 2 87 13 94 11 7 6 10 -19 10 -28 0 -31 -2 -22 -14 7
-8 11 -37 9 -68 l-3 -53 -44 68 c-34 52 -49 67 -67 67 -20 0 -23 -3 -16 -17z"/>
<path d="M6648 3838 c7 -7 12 -41 12 -83 0 -42 -5 -76 -12 -83 -9 -9 3 -12 53
-12 60 0 67 2 77 25 14 30 8 31 -25 5 -14 -11 -36 -20 -49 -20 -23 0 -24 3
-24 78 0 47 5 83 12 90 9 9 4 12 -22 12 -26 0 -31 -3 -22 -12z"/>
<path d="M7237 3843 c19 -7 73 -107 73 -135 0 -13 -5 -29 -12 -36 -9 -9 -4
-12 26 -12 34 0 36 1 22 16 -15 14 -19 74 -6 74 3 0 11 14 19 32 8 17 22 39
33 50 17 17 17 18 -14 18 -23 0 -29 -3 -21 -11 8 -8 6 -19 -6 -40 -9 -16 -18
-29 -21 -29 -3 0 -14 14 -24 31 -15 26 -16 33 -5 40 9 6 -2 8 -31 8 -25 0 -40
-3 -33 -6z"/>
<path d="M5706 3518 c-51 -122 -63 -158 -55 -158 5 0 12 0 16 0 4 0 8 6 9 13
0 6 2 20 2 30 2 13 11 17 42 17 37 0 41 -3 47 -30 4 -24 11 -30 30 -30 19 0
23 3 15 13 -10 12 -51 118 -56 146 -1 7 -10 18 -19 23 -14 7 -20 3 -31 -24z
m29 -30 c13 -39 9 -52 -12 -52 -25 0 -26 2 -17 39 7 27 22 33 29 13z"/>
<path d="M5884 3527 c-42 -36 -46 -101 -9 -146 15 -17 36 -31 47 -31 17 0 16
4 -11 31 -25 25 -31 39 -31 74 0 35 5 48 26 64 36 28 50 26 85 -11 l30 -33 -7
30 c-9 38 -4 35 -56 41 -38 5 -49 2 -74 -19z"/>
<path d="M6134 3542 c-6 -4 -17 -25 -24 -47 -11 -33 -27 -74 -52 -132 -5 -10
31 -12 38 -2 3 5 1 9 -5 9 -7 0 -7 8 1 25 15 33 72 36 88 5 6 -11 8 -25 5 -30
-3 -6 -3 -10 2 -11 4 0 16 -2 26 -4 10 -2 17 0 15 3 -2 4 -18 49 -37 100 -34
93 -37 98 -57 84z m22 -79 c6 -29 4 -32 -16 -28 -31 6 -31 7 -18 43 14 36 25
31 34 -15z"/>
<path d="M6250 3540 c0 -5 5 -10 11 -12 12 -4 16 -121 5 -155 -5 -17 -3 -21
11 -18 10 2 21 4 24 4 4 1 4 21 1 46 -2 26 0 45 5 45 11 0 73 -74 73 -88 0 -6
39 -9 46 -3 0 1 -17 20 -38 44 -34 35 -37 43 -21 46 46 9 68 56 37 82 -18 14
-154 22 -154 9z m138 -34 c6 -27 -17 -46 -54 -46 -32 0 -34 2 -34 34 0 25 5
36 18 38 29 7 67 -7 70 -26z"/>
<path d="M6440 3526 c-10 -28 -2 -36 14 -13 15 20 42 23 49 5 7 -20 2 -136 -6
-144 -14 -14 -7 -21 19 -18 26 2 47 14 26 14 -8 0 -12 26 -12 80 0 72 2 80 19
80 10 0 26 -10 34 -22 15 -22 16 -22 16 -3 1 34 -12 41 -82 42 -61 1 -69 -2
-77 -21z"/>
<path d="M6684 3517 c-3 -17 -10 -38 -15 -47 -9 -17 -49 -111 -49 -115 0 -11
35 5 36 16 3 44 4 46 43 47 39 2 53 -12 56 -52 0 -12 44 -15 51 -4 3 4 1 8 -4
8 -6 0 -18 19 -28 43 -22 53 -20 46 -29 85 -13 54 -50 66 -61 19z m42 -72 c-5
-13 -29 -15 -41 -4 -3 3 0 21 6 39 l12 33 14 -27 c8 -15 12 -34 9 -41z"/>
<path d="M6824 3539 c-3 -5 0 -9 6 -9 8 0 10 -26 8 -85 -2 -47 -1 -85 2 -86
34 -4 103 -3 110 1 5 3 12 19 16 35 l7 30 -22 -27 c-16 -20 -32 -28 -55 -28
l-33 0 2 76 c1 53 5 78 16 85 8 5 10 9 4 10 -40 6 -56 5 -61 -2z"/>
<path d="M7041 3533 c-5 -10 -9 -22 -9 -26 -1 -19 -48 -137 -55 -137 -4 0 -6
-4 -3 -9 3 -5 15 -7 26 -4 11 3 17 9 14 14 -3 5 -2 18 1 29 5 16 15 20 46 20
39 0 43 -5 42 -47 -1 -8 12 -13 31 -13 20 0 26 3 18 9 -7 4 -24 41 -39 82 -34
100 -51 119 -72 82z m37 -65 c6 -16 8 -29 4 -29 -28 -5 -52 -5 -52 -1 0 3 5
21 12 39 13 35 17 34 36 -9z"/>
<path d="M5986 3450 c-17 -6 -18 -7 -3 -13 22 -8 22 -35 0 -60 -16 -18 -16
-20 -2 -14 9 3 22 0 28 -6 12 -12 12 -11 14 41 1 18 9 37 17 42 8 5 11 10 5
11 -5 0 -17 2 -25 3 -8 2 -24 0 -34 -4z"/>
<path d="M5220 3240 c0 -6 6 -10 13 -7 6 2 27 -10 46 -27 23 -21 32 -25 28
-13 -4 10 -7 24 -7 31 0 6 -8 12 -17 13 -10 1 -28 4 -40 8 -15 5 -23 3 -23 -5z"/>
<path d="M6913 3225 c-101 -81 5 -229 113 -159 38 25 28 36 -12 12 -28 -17
-40 -19 -59 -10 -38 17 -58 56 -51 97 7 35 46 75 69 71 27 -6 47 -19 47 -31 0
-7 7 -18 16 -26 13 -11 14 -9 8 17 -8 33 -10 37 -27 41 -57 15 -73 13 -104
-12z"/>
<path d="M5183 3228 c-33 -42 -15 -70 58 -91 34 -10 45 -18 47 -36 7 -47 -56
-56 -100 -14 l-29 27 5 -24 c2 -14 5 -29 5 -34 1 -5 7 -3 15 3 10 8 16 9 21 1
3 -5 24 -10 45 -10 31 0 43 5 55 24 25 37 6 72 -47 87 -59 17 -76 33 -60 59
13 22 1 28 -15 8z"/>
<path d="M5386 3178 c-11 -35 -27 -78 -37 -95 -18 -32 -18 -33 0 -33 14 0 21
10 25 35 4 19 11 35 17 35 6 0 8 4 5 9 -3 5 0 26 8 47 l13 39 17 -40 c11 -27
13 -41 6 -43 -7 -3 -4 -9 5 -16 9 -7 18 -24 18 -39 2 -21 7 -27 25 -27 24 0
28 10 12 26 -6 6 -13 22 -15 35 -11 56 -43 124 -61 127 -15 2 -23 -10 -38 -60z"/>
<path d="M5547 3228 c10 -18 11 -139 1 -160 -8 -16 -2 -18 64 -18 73 0 74 0
85 30 14 36 10 37 -25 5 -17 -16 -38 -25 -60 -25 -33 0 -33 1 -30 42 2 31 7
42 22 44 11 2 20 -5 23 -17 3 -10 9 -16 13 -14 11 7 9 65 -2 65 -4 0 -8 -4 -8
-10 0 -5 -11 -10 -25 -10 -22 0 -25 4 -25 35 0 34 1 35 39 35 30 0 44 -6 55
-22 19 -26 27 -21 15 10 -8 20 -15 22 -79 22 -55 0 -69 -3 -63 -12z"/>
<path d="M5838 3228 c7 -7 12 -41 12 -83 0 -42 -5 -76 -12 -83 -9 -9 -7 -12
13 -12 22 0 24 3 21 44 -4 52 17 67 48 36 20 -20 20 -20 20 17 0 33 -1 35 -17
21 -29 -24 -53 -12 -53 27 0 24 5 35 18 38 9 3 -1 5 -22 6 -31 1 -37 -2 -28
-11z"/>
<path d="M5936 3229 c17 -5 36 -19 42 -31 8 -17 11 -19 11 -6 2 36 -11 48 -48
47 l-36 -1 31 -9z"/>
<path d="M6039 3226 c17 -21 11 -162 -7 -158 -8 1 -11 -2 -7 -8 3 -5 21 -10
38 -9 18 0 26 3 20 6 -8 2 -13 22 -13 44 l0 39 45 0 c35 0 47 -4 55 -21 15
-27 -12 -59 -49 -60 -14 0 -20 -3 -13 -6 27 -11 79 7 92 32 12 22 11 27 -5 45
-16 18 -17 24 -7 41 20 31 6 57 -34 65 -19 3 -38 4 -41 0 -4 -3 3 -6 14 -6 27
0 42 -19 40 -50 -2 -23 -6 -26 -42 -24 -22 1 -44 2 -49 3 -4 0 -6 19 -4 41 3
37 1 40 -20 40 -20 0 -22 -3 -13 -14z"/>
<path d="M6286 3205 c-9 -20 -20 -53 -26 -73 -5 -21 -17 -47 -25 -59 -16 -22
-15 -23 11 -23 21 0 25 3 17 11 -19 19 11 54 47 57 25 2 32 -3 40 -24 6 -14 8
-30 4 -35 -3 -5 18 -9 48 -9 29 0 63 0 76 0 52 0 62 15 62 93 0 44 5 78 12 85
9 9 4 12 -22 12 -26 0 -31 -3 -22 -12 18 -18 16 -142 -2 -158 -25 -20 -61 -9
-61 20 0 36 -28 32 -36 -5 l-6 -30 -11 25 c-7 14 -23 54 -36 90 -28 77 -49 87
-70 35z m44 -57 c0 -13 -8 -18 -26 -18 -20 0 -25 4 -20 16 3 9 9 27 12 41 l7
26 13 -24 c7 -13 13 -32 14 -41z"/>
<path d="M6637 3198 c-38 -108 -44 -123 -54 -121 -5 1 -10 -5 -10 -13 0 -8 10
-14 24 -14 13 0 22 4 19 9 -4 5 -2 21 4 35 7 20 16 26 39 26 32 0 57 -30 47
-56 -4 -11 4 -14 32 -14 28 1 33 3 21 10 -9 5 -20 22 -25 37 -9 34 -9 33 -19
58 -4 11 -14 35 -21 53 -18 44 -39 40 -57 -10z m42 -29 c14 -41 15 -39 -18
-39 -28 0 -28 1 -17 35 13 43 21 44 35 4z"/>
<path d="M7088 3228 c7 -7 12 -41 12 -83 0 -42 -5 -76 -12 -83 -9 -9 -4 -12
23 -11 18 0 28 3 22 6 -17 6 -18 154 -1 171 9 9 4 12 -22 12 -26 0 -31 -3 -22
-12z"/>
<path d="M7258 3228 c7 -7 12 -40 12 -78 0 -79 16 -100 73 -100 56 0 77 27 77
99 0 33 3 66 6 75 4 11 0 16 -12 16 -17 0 -19 -7 -16 -71 3 -56 0 -74 -14 -90
-21 -23 -42 -24 -72 -3 -19 13 -22 24 -22 78 0 35 5 67 12 74 9 9 4 12 -22 12
-26 0 -31 -3 -22 -12z"/>
<path d="M7478 3159 c2 -52 -1 -85 -8 -95 -11 -12 -7 -14 24 -14 20 0 36 5 36
10 0 6 -5 9 -12 8 -21 -5 -17 56 6 75 19 16 19 18 2 15 -15 -2 -19 4 -21 32
-1 19 3 38 9 42 6 4 0 8 -14 8 -25 0 -25 0 -22 -81z"/>
<path d="M7589 3226 c6 -7 10 -27 9 -44 -2 -25 -6 -29 -25 -26 -13 3 -23 0
-23 -6 0 -5 11 -10 24 -10 35 0 44 -35 16 -65 l-21 -22 26 5 c14 2 30 13 36
24 11 20 3 58 -12 58 -5 0 -9 7 -9 15 0 8 5 15 10 15 18 0 11 49 -9 60 -27 14
-36 13 -22 -4z"/>
<path d="M5970 3089 c-8 -11 -31 -24 -50 -29 -35 -8 -35 -8 13 -9 42 -1 49 2
57 25 12 30 12 34 3 34 -5 -1 -15 -10 -23 -21z"/>
<path d="M7192 3080 c-32 -29 -32 -30 -8 -30 18 0 27 8 35 30 5 17 9 30 8 30
-1 0 -17 -14 -35 -30z"/>
</g>
</svg>
